HIERARCHY
ROOT hip
{
	OFFSET 0.000000 0.000000 0.000000
	CHANNELS 6 Xposition Yposition Zposition Xrotation Zrotation Yrotation 
	JOINT abdomen
	{
		OFFSET 0.000000 3.422050 0.000000
		CHANNELS 3 Xrotation Zrotation Yrotation 
		JOINT chest
		{
			OFFSET 0.000000 8.486693 -0.684411
			CHANNELS 3 Xrotation Zrotation Yrotation 
			JOINT neck
			{
				OFFSET 0.000000 10.266162 -0.273764
				CHANNELS 3 Xrotation Zrotation Yrotation 
				JOINT head
				{
					OFFSET 0.000000 3.148285 0.000000
					CHANNELS 3 Xrotation Zrotation Yrotation 
					End Site
					{
						OFFSET 0.000000 3.148289 0.000000
					}
				}
			}
			JOINT lCollar
			{
				OFFSET 3.422053 6.707223 -0.821293
				CHANNELS 3 Yrotation Zrotation Xrotation 
				JOINT lShldr
				{
					OFFSET 3.285171 0.000000 0.000000
					CHANNELS 3 Zrotation Yrotation Xrotation 
					JOINT lForeArm
					{
						OFFSET 10.129278 0.000000 0.000000
						CHANNELS 3 Yrotation Zrotation Xrotation 
						JOINT lHand
						{
							OFFSET 8.486692 0.000000 0.000000
							CHANNELS 3 Zrotation Yrotation Xrotation 
							End Site
							{
								OFFSET 4.106464 0.000000 0.000000
							}
						}
					}
				}
			}
			JOINT rCollar
			{
				OFFSET -3.558935 6.707223 -0.821293
				CHANNELS 3 Yrotation Zrotation Xrotation 
				JOINT rShldr
				{
					OFFSET -3.148289 0.000000 0.000000
					CHANNELS 3 Zrotation Yrotation Xrotation 
					JOINT rForeArm
					{
						OFFSET -10.266159 0.000000 0.000000
						CHANNELS 3 Yrotation Zrotation Xrotation 
						JOINT rHand
						{
							OFFSET -8.349810 0.000000 0.000000
							CHANNELS 3 Zrotation Yrotation Xrotation 
							End Site
							{
								OFFSET -4.106464 0.000000 0.000000
							}
						}
					}
				}
			}
		}
	}
	JOINT lThigh
	{
		OFFSET 5.338403 -1.642589 1.368821
		CHANNELS 3 Xrotation Zrotation Yrotation 
		JOINT lShin
		{
			OFFSET -2.053232 -20.121670 0.000000
			CHANNELS 3 Xrotation Zrotation Yrotation 
			JOINT lFoot
			{
				OFFSET 0.000000 -19.300380 -1.231939
				CHANNELS 3 Xrotation Yrotation Zrotation 
				End Site
				{
					OFFSET 0.000000 -2.463878 4.653993
				}
			}
		}
	}
	JOINT rThigh
	{
		OFFSET -5.338403 -1.642589 1.368821
		CHANNELS 3 Xrotation Zrotation Yrotation 
		JOINT rShin
		{
			OFFSET 2.053232 -20.121670 0.000000
			CHANNELS 3 Xrotation Zrotation Yrotation 
			JOINT rFoot
			{
				OFFSET 0.000000 -19.300380 -1.231939
				CHANNELS 3 Xrotation Yrotation Zrotation 
				End Site
				{
					OFFSET 0.000000 -2.463878 4.653993
				}
			}
		}
	}
}
MOTION
Frames: 16
Frame Time: 0.033264
-0.465591 4.846346 0.517245 -95.310837 0.000000 0.000000 5.697204 -1.056952 -0.656156 -4.834917 1.830240 -0.931973 -1.001061 16.272787 -0.001882 -0.475169 10.999555 -0.000188 0.916505 0.519446 -0.434033 -80.021599 -14.281322 2.414624 -52.910820 -7.650213 5.263581 -46.202576 14.173331 1.072220 8.011591 -21.874502 -10.336878 72.213860 22.480507 -0.095157 81.330544 21.266247 -2.337342 55.273800 18.108145 -9.082323 -25.948017 12.951022 4.111235 85.262245 -11.912813 5.667160 29.888861 3.512571 -5.401917 -25.213430 -14.982196 -0.043427 78.405067 12.161250 -7.088133 36.464706 -0.258903 7.507449 
-0.465591 4.795282 0.496819 -95.611519 0.000000 0.000000 6.375289 -1.056957 -0.656148 -5.285804 1.830185 -0.931940 -1.001034 16.047689 -0.001857 -0.450158 10.999557 -0.000178 0.765177 0.406106 -0.634868 -80.021599 -14.281322 2.414624 -52.275127 -7.543350 5.318109 -46.175709 14.037891 1.224200 8.397931 -21.597315 -9.869110 71.929619 22.541388 -0.240455 81.153656 21.116613 -2.274275 55.583916 18.246916 -8.654915 -25.693979 12.975249 4.151789 85.262245 -11.912813 5.667160 30.010164 3.533937 -5.335314 -24.927784 -15.060802 -0.160136 78.405067 12.161250 -7.088133 36.579842 -0.258124 7.346313 
-0.465591 4.744219 0.476393 -95.912163 0.000000 0.000000 7.053282 -1.056962 -0.656141 -5.736663 1.830130 -0.931907 -1.001006 15.822597 -0.001831 -0.425148 10.999554 -0.000168 0.613457 0.293300 -0.835993 -80.021599 -14.281322 2.414624 -51.639771 -7.435907 5.371418 -46.149227 13.902384 1.376021 8.781060 -21.317245 -9.404301 71.645126 22.601610 -0.386140 80.977135 20.966806 -2.211769 55.895332 18.383471 -8.226414 -25.439901 12.999299 4.192455 85.262245 -11.912813 5.667160 30.131449 3.555446 -5.268757 -24.641878 -15.138843 -0.277290 78.405067 12.161250 -7.088133 36.694984 -0.257669 7.185178 
-0.465591 4.693156 0.455968 -96.212814 0.000000 0.000000 7.731129 -1.056966 -0.656133 -6.187482 1.830077 -0.931874 -1.000980 15.597507 -0.001805 -0.400137 10.999556 -0.000158 0.461348 0.181032 -1.037408 -80.021599 -14.281322 2.414624 -51.004799 -7.327906 5.423501 -46.123146 13.766817 1.527689 9.160959 -21.034344 -8.942455 71.360313 22.661152 -0.532209 80.800941 20.816813 -2.149818 56.208038 18.517799 -7.796839 -25.185791 13.023171 4.233232 85.262245 -11.912813 5.667160 30.252712 3.577095 -5.202244 -24.355713 -15.216316 -0.394885 78.405067 12.161250 -7.088133 36.810116 -0.257537 7.024045 
-0.465591 4.642092 0.435542 -96.513443 0.000000 0.000000 8.408787 -1.056971 -0.656125 -6.638245 1.830023 -0.931840 -1.000953 15.372423 -0.001780 -0.375127 10.999557 -0.000148 0.308854 0.069304 -1.239110 -80.021599 -14.281322 2.414624 -50.370220 -7.219365 5.474349 -46.097427 13.631182 1.679201 9.537617 -20.748655 -8.483586 71.075241 22.720026 -0.678650 80.625130 20.666656 -2.088429 56.521992 18.649878 -7.366218 -24.931652 13.046870 4.274123 85.262245 -11.912813 5.667160 30.373947 3.598883 -5.135777 -24.069284 -15.293216 -0.512915 78.405067 12.161250 -7.088133 36.925255 -0.257729 6.862917 
-0.465591 4.591029 0.415117 -96.814056 0.000000 0.000000 9.086211 -1.056977 -0.656117 -7.088935 1.829969 -0.931805 -1.000926 15.147350 -0.001755 -0.350117 10.999555 -0.000139 0.155977 -0.041879 -1.441097 -80.021599 -14.281322 2.414624 -49.736103 -7.110308 5.523955 -46.072117 13.495489 1.830560 9.911025 -20.460241 -8.027705 70.789909 22.778219 -0.825460 80.449646 20.516327 -2.027591 56.837170 18.779690 -6.934577 -24.677481 13.070387 4.315121 85.262245 -11.912813 5.667160 30.495163 3.620812 -5.069356 -23.782614 -15.369539 -0.631379 78.405067 12.161250 -7.088133 37.040375 -0.258245 6.701793 
-0.465591 4.539965 0.394691 -97.114624 0.000000 0.000000 9.763347 -1.056982 -0.656110 -7.539544 1.829916 -0.931770 -1.000900 14.922288 -0.001730 -0.325107 10.999557 -0.000129 0.002718 -0.152514 -1.643367 -80.021599 -14.281322 2.414624 -49.102463 -7.000753 5.572313 -46.047169 13.359734 1.981765 10.281170 -20.169140 -7.574814 70.504318 22.835739 -0.972638 80.274536 20.365831 -1.967309 57.153568 18.907225 -6.501939 -24.423279 13.093726 4.356227 85.262245 -11.912813 5.667160 30.616350 3.642879 -5.002981 -23.495701 -15.445290 -0.750273 78.405067 12.161250 -7.088133 37.155495 -0.259085 6.540676 
-0.465591 4.488902 0.374265 -97.415176 0.000000 0.000000 10.440153 -1.056987 -0.656102 -7.990055 1.829863 -0.931735 -1.000873 14.697241 -0.001705 -0.300098 10.999557 -0.000119 -0.150918 -0.262598 -1.845916 -80.021599 -14.281322 2.414624 -48.469353 -6.890724 5.619416 -46.022621 13.223922 2.132818 10.648050 -19.875416 -7.124923 70.218452 22.892570 -1.120177 80.099762 20.215172 -1.907577 57.471127 19.032459 -6.068337 -24.169050 13.116884 4.397440 85.262245 -11.912813 5.667160 30.737511 3.665088 -4.936653 -23.208534 -15.520451 -0.869591 78.405067 12.161250 -7.088133 37.270611 -0.260248 6.379570 
-0.465591 4.437839 0.353840 -97.715714 0.000000 0.000000 11.116580 -1.056992 -0.656094 -8.440454 1.829810 -0.931699 -1.000847 14.472199 -0.001680 -0.275088 10.999556 -0.000109 -0.304930 -0.372128 -2.048743 -80.021599 -14.281322 2.414624 -47.836777 -6.780238 5.665257 -45.998440 13.088052 2.283720 11.011658 -19.579111 -6.678037 69.932358 22.948727 -1.268066 79.925339 20.064352 -1.848396 57.789848 19.155388 -5.633793 -23.914806 13.139865 4.438761 85.262245 -11.912813 5.667160 30.858652 3.687435 -4.870372 -22.921141 -15.595033 -0.989330 78.405067 12.161250 -7.088133 37.385715 -0.261735 6.218471 
-0.465591 4.386775 0.333414 -98.016197 0.000000 0.000000 11.792585 -1.056998 -0.656087 -8.890728 1.829758 -0.931663 -1.000821 14.247177 -0.001655 -0.250079 10.999556 -0.000099 -0.459315 -0.481100 -2.251845 -80.021599 -14.281322 2.414624 -47.204792 -6.669320 5.709833 -45.974651 12.952131 2.434474 11.371987 -19.280289 -6.234159 69.645988 23.004189 -1.416306 79.751251 19.913372 -1.789765 58.109673 19.275986 -5.198340 -23.660547 13.162666 4.480185 85.262245 -11.912813 5.667160 30.979753 3.709921 -4.804137 -22.633512 -15.669021 -1.109484 78.405067 12.161250 -7.088133 37.500813 -0.263545 6.057387 
-0.465591 4.335711 0.312989 -98.316650 0.000000 0.000000 12.468114 -1.057003 -0.656080 -9.340862 1.829705 -0.931626 -1.000795 14.022174 -0.001631 -0.225070 10.999558 -0.000089 -0.614069 -0.589511 -2.455220 -80.021599 -14.281322 2.414624 -46.573433 -6.557989 5.753138 -45.951241 12.816156 2.585078 11.729034 -18.978985 -5.793289 69.359421 23.058966 -1.564889 79.577507 19.762241 -1.731683 58.430611 19.394249 -4.762006 -23.406263 13.185284 4.521712 85.262245 -11.912813 5.667160 31.100840 3.732546 -4.737952 -22.345654 -15.742423 -1.230052 78.405067 12.161250 -7.088133 37.615879 -0.265679 5.896314 
-0.465591 4.284648 0.292563 -98.617035 0.000000 0.000000 13.143127 -1.057009 -0.656072 -9.790846 1.829654 -0.931589 -1.000769 13.797192 -0.001606 -0.200062 10.999557 -0.000079 -0.769192 -0.697358 -2.658866 -80.021599 -14.281322 2.414624 -45.942726 -6.446267 5.795167 -45.928211 12.680132 2.735535 12.082799 -18.675264 -5.355430 69.072578 23.113045 -1.713811 79.404114 19.610954 -1.674145 58.752613 19.510160 -4.324816 -23.151972 13.207720 4.563342 85.262245 -11.912813 5.667160 31.221899 3.755311 -4.671816 -22.057573 -15.815228 -1.351028 78.405067 12.161250 -7.088133 37.730957 -0.268136 5.735258 
-0.465591 4.233585 0.272137 -98.917389 0.000000 0.000000 13.817576 -1.057015 -0.656065 -10.240663 1.829603 -0.931552 -1.000743 13.572227 -0.001582 -0.175053 10.999557 -0.000069 -0.924678 -0.804638 -2.862779 -80.021599 -14.281322 2.414624 -45.312714 -6.334177 5.835919 -45.905560 12.544058 2.885843 12.433281 -18.369183 -4.920582 68.785530 23.166439 -1.863065 79.231041 19.459520 -1.617152 59.075619 19.623697 -3.886802 -22.897661 13.229971 4.605072 85.262245 -11.912813 5.667160 31.342926 3.778212 -4.605728 -21.769278 -15.887437 -1.472408 78.405067 12.161250 -7.088133 37.846008 -0.270917 5.574220 
-0.465591 4.182521 0.251712 -99.217690 0.000000 0.000000 14.491414 -1.057021 -0.656058 -10.690296 1.829551 -0.931514 -1.000718 13.347283 -0.001558 -0.150045 10.999557 -0.000059 -1.080526 -0.911347 -3.066957 -80.021599 -14.281322 2.414624 -44.683426 -6.221740 5.875389 -45.883293 12.407940 3.036007 12.780477 -18.060778 -4.488741 68.498245 23.219131 -2.012644 79.058334 19.307938 -1.560704 59.399651 19.734859 -3.447997 -22.643345 13.252040 4.646903 85.262245 -11.912813 5.667160 31.463930 3.801254 -4.539690 -21.480768 -15.959046 -1.594186 78.405067 12.161250 -7.088133 37.961037 -0.274020 5.413198 
-0.465591 4.131458 0.231286 -99.517929 0.000000 0.000000 15.164595 -1.057026 -0.656051 -11.139734 1.829500 -0.931476 -1.000692 13.122368 -0.001534 -0.125037 10.999557 -0.000049 -1.236732 -1.017482 -3.271398 -80.021599 -14.281322 2.414624 -44.054890 -6.108976 5.913571 -45.861397 12.271775 3.186025 13.124393 -17.750113 -4.059907 68.210754 23.271124 -2.162543 78.885948 19.156212 -1.504796 59.724628 19.843628 -3.008426 -22.389027 13.273928 4.688832 85.262245 -11.912813 5.667160 31.584898 3.824433 -4.473702 -21.192041 -16.030046 -1.716361 78.405067 12.161250 -7.088133 38.076065 -0.277447 5.252197 
-0.465591 4.080394 0.210860 -99.818108 0.000000 0.000000 15.837081 -1.057032 -0.656044 -11.588965 1.829450 -0.931438 -1.000667 12.897475 -0.001510 -0.100029 10.999560 -0.000040 -1.393295 -1.123041 -3.476099 -80.021599 -14.281322 2.414624 -43.427143 -5.995907 5.950467 -45.839882 12.135567 3.335898 13.465030 -17.437241 -3.634075 67.923065 23.322418 -2.312759 78.713898 19.004349 -1.449432 60.050552 19.949993 -2.568127 -22.134703 13.295628 4.730857 85.262245 -11.912813 5.667160 31.705841 3.847749 -4.407764 -20.903114 -16.100439 -1.838926 78.405067 12.161250 -7.088133 38.191051 -0.281196 5.091217 
